/* XPM */
static char * hide_prelight_xpm[] = {
"14 15 3 1",
" 	c None",
".	c #3C3B37",
"+	c #FF993E",
"..............",
"..............",
"..............",
"..............",
"..............",
"..............",
"..............",
"...++++++++...",
"...++++++++...",
"..............",
"..............",
"..............",
"..............",
"..............",
".............."};
