/* XPM */
static char * shade_active_xpm[] = {
"15 15 3 1",
" 	c None",
".	c #3C3B37",
"+	c #B1B1B1 s active_text_color",
"...............",
"...............",
"...............",
"...............",
"...............",
".......+.......",
"......+++......",
".....+++++.....",
"....+++.+++....",
"...+++...+++...",
"...............",
"...............",
"...............",
"...............",
"..............."};
