/* XPM */
static char * title_5_active_xpm[] = {
"5 24 3 1",
" 	c None",
".	c #3C3B37",
"+	c #1A1A1A",
"+++++",
".....",
".....",
".....",
".....",
".....",
".....",
".....",
".....",
".....",
".....",
".....",
".....",
".....",
".....",
".....",
".....",
".....",
".....",
".....",
".....",
".....",
".....",
"....."};
