/* XPM */
static char * title_3_inactive_xpm[] = {
"5 24 3 1",
" 	c None",
".	c #3C3B37",
"+	c #1A1A1A",
"+++++",
".....",
".....",
".....",
".....",
".....",
".....",
".....",
".....",
".....",
".....",
".....",
".....",
".....",
".....",
".....",
".....",
".....",
".....",
".....",
".....",
".....",
".....",
"....."};
